<svg width="14" height="13" viewBox="0 0 14 13" fill="none" xmlns="http://www.w3.org/2000/svg">
<g id="Icons=Calling">
<g id="Group">
<g id="Calling">
<path id="Fill 1" opacity="0.2" d="M8.31915 2.95958C8.05949 2.91217 7.82101 3.07595 7.77158 3.32647C7.72215 3.577 7.88837 3.82159 8.14097 3.87062C8.90147 4.01716 9.48869 4.59901 9.63753 5.35327V5.3538C9.6799 5.57092 9.87329 5.72878 10.096 5.72878C10.1259 5.72878 10.1558 5.72608 10.1862 5.7207C10.4388 5.67059 10.605 5.42654 10.5556 5.17548C10.3334 4.04894 9.4561 3.17886 8.31915 2.95958Z" fill="white"/>
<path id="Fill 3" opacity="0.2" d="M8.28514 1.0824C8.16346 1.06516 8.04123 1.10072 7.944 1.17722C7.84405 1.2548 7.78158 1.36686 7.76799 1.49239C7.7392 1.74614 7.92444 1.97565 8.18084 2.00421C9.94901 2.19924 11.3234 3.56067 11.5222 5.31377C11.5488 5.54867 11.7482 5.72591 11.9861 5.72591C12.004 5.72591 12.0214 5.72484 12.0393 5.72268C12.1637 5.70921 12.2745 5.64833 12.3528 5.55136C12.4304 5.45438 12.4657 5.3337 12.4516 5.21033C12.2039 3.02299 10.4911 1.32538 8.28514 1.0824Z" fill="white"/>
</g>
</g>
<g id="Call">
<path id="Stroke 1" fill-rule="evenodd" clip-rule="evenodd" d="M6.47174 6.99378C8.6476 9.14379 9.14121 6.65647 10.5266 8.02481C11.8622 9.34456 12.6298 9.60897 10.9376 11.2811C10.7257 11.4494 9.37893 13.4751 4.64603 8.79838C-0.087453 4.12112 1.96076 2.78865 2.13115 2.5792C3.82745 0.902471 4.09036 1.66562 5.42597 2.98537C6.81135 4.35429 4.29588 4.84377 6.47174 6.99378Z" fill="white"/>
</g>
</g>
</svg>
